<?xml version="1.0" standalone="no"?>
<!DOCTYPE svg PUBLIC "-//W3C//DTD SVG 20010904//EN"
 "http://www.w3.org/TR/2001/REC-SVG-20010904/DTD/svg10.dtd">
<svg version="1.0" xmlns="http://www.w3.org/2000/svg"
 width="1000.000000pt" height="1000.000000pt" viewBox="0 0 1000.000000 1000.000000"
 preserveAspectRatio="xMidYMid meet">
<metadata>
Created by potrace 1.11, written by Peter Selinger 2001-2013
</metadata>
<g transform="translate(0.000000,1000.000000) scale(0.100000,-0.100000)"
fill="#000000" stroke="none">
<path class="cls-1" d="M380,131.14a18.45,18.45,0,0,1-2.67.14,3.38,3.38,0,0,1-1.85-.64,20.16,20.16,0,0,1-5.92-7.47,42,42,0,0,0-3.78-6.38A2.72,2.72,0,0,0,364,116c-2.26-.23-4.61,0-6.78-.57a27.8,27.8,0,0,1-9.2-3.68c-2-1.35-4.35-2.19-6.37-3.51a46.2,46.2,0,0,1-4.86-4c-.91-.8-1.73-1.7-2.61-2.53-.12-.11-.38,0-.56-.11-.5-.18-1-.37-1.49-.59a8.29,8.29,0,0,0-1.68-.85c-2.64-.54-5.31-1-8-1.5-.76-.15-1.47-.6-2.11.22-.08.1-.36.18-.44.12-1.26-.93-2.41.49-3.64.16s-2.42-.66-3.64-.89a12.49,12.49,0,0,0-2-.06,4.46,4.46,0,0,1-2.8-.64,4,4,0,0,0-2.62-.3,3.41,3.41,0,0,1-3.08-1.09,3.79,3.79,0,0,0-3-1.11c-1.82,0-3.65-.16-5.47-.2a6.15,6.15,0,0,0-1.38.28c-.3.06-.64.23-.9.15a23.56,23.56,0,0,1-3.4-1.18c-1.28-.59-2.47-1.37-3.71-2.05a2.73,2.73,0,0,0-1-.32,21,21,0,0,0-3.45-.21,8.11,8.11,0,0,0-3,.72,6.25,6.25,0,0,1-4.38.17,42.3,42.3,0,0,0-9.11-1,5.7,5.7,0,0,1-2.92-1,4.19,4.19,0,0,0-4.79-.21,4.66,4.66,0,0,1-4.62.27c-2-1.1-3.73-.61-5.59.28-2.5,1.21-5.08.94-7.64.12a9.13,9.13,0,0,0-5.91,0c-.91.31-2,.15-2.92.37a4.59,4.59,0,0,0-1.83.92,2.48,2.48,0,0,1-3.14.41,7.11,7.11,0,0,1-1.63-1,3.53,3.53,0,0,0-3.68-.52c-2.24.68-4.28.81-6.31-.57-1.45-1-3.19-.52-4.8-.75-.34,0-.78,0-1-.21-1.3-1.12-2.79-.87-4.31-.77a35.92,35.92,0,0,1-4.64,0,13.13,13.13,0,0,0-6.38.81,2.29,2.29,0,0,1-2.8-.67,3.38,3.38,0,0,0-3.8-1.39c-1.05.28-2.28-.18-3.42-.14-1.71,0-3.41.28-5.13.35a31.61,31.61,0,0,1-5.24,0,6.72,6.72,0,0,1-2.69-1.41,4.48,4.48,0,0,0-5.09-.27c-1.63.86-4.68.29-6.13-1-.5-.45-1.06-.84-1.53-1.31-1.63-1.62-3.62-1.49-5.67-1.3s-4.05.19-5.74-1.36a9.88,9.88,0,0,0-2.76-1.8,3.75,3.75,0,0,0-2.25,0,4.55,4.55,0,0,1-4.05-.54c-1.58-1.1-3.25-.74-4.88-.32-1.84.48-3.64,1.1-5.57.81a8.49,8.49,0,0,1-2.36-.67,7.3,7.3,0,0,0-7.13.2,3.49,3.49,0,0,1-4.75-1.18c-1.25-1.65-2-1.91-4-1.07a15.25,15.25,0,0,1-6.77,1.35,11.75,11.75,0,0,0-6.8,1.49c-.94.58-2.51.2-3.79.13-.85,0-1.69-.42-2.54-.45-2.94-.1-5.89,0-8.83-.19a15.27,15.27,0,0,1-3.06-1,12.33,12.33,0,0,0-3.58-.91,9.89,9.89,0,0,1-6.83-2.12c-1-.81-3.08-.43-4.42.92-1,1-2,.67-3,.44-1.43-.35-2.77-1.06-4.18-1.49a4.8,4.8,0,0,0-2.34-.17A9.51,9.51,0,0,1,44.16,74c-2-.79-4-.47-6-.15a6.42,6.42,0,0,1-5.29-1.13,5.68,5.68,0,0,0-4.29-1.16c-2.17.17-3.89-1-5.5-2.31-1.85-1.47-3.72-2.68-6.31-2.49a5.53,5.53,0,0,1-5.31-2.39,1.82,1.82,0,0,0-2.15-.64c-2.88.78-5.12-.47-7.22-2.16a8.23,8.23,0,0,1-1.73-1.9A2.17,2.17,0,0,1,.06,58c.65-2.2,1.43-4.36,2.15-6.54a32.35,32.35,0,0,0,2-9.21c.1-3.7.09-7.41.27-11.11.12-2.54.48-5.07.74-7.6.1-.91.48-1.29,1.52-1.27,6.7.14,13.4.21,20.09.26,4.07,0,8.14.06,12.21,0,2,0,4.1-.35,6.15-.47,1.33-.08,2.67,0,4,0,2.65,0,5.3,0,8,.09,1.55.05,3.09.38,4.64.45,1.75.08,3.52-.05,5.28,0,2.77.1,5.53.31,8.3.42,2.12.08,4.24.09,6.36.08,2.85,0,5.7-.06,8.54-.1s5.6-.19,8.4-.14c2.62,0,5.24.32,7.87.41q6.3.19,12.6.25c4,0,8.08,0,12.12,0,4.9.07,9.79.21,14.69.37,5.42.17,10.83.4,16.25.57,1.94.06,3.89-.08,5.83,0,2.51.14,5,.43,7.53.65,1.11.1,2.21.15,3.31.28,4,.47,8,1.11,12.06,1.4a59.86,59.86,0,0,0,9.18-.05c2.71-.22,5.39-.91,8.09-1.34,2.17-.36,4.35-.63,6.53-1,3.3-.5,6.6-1,9.9-1.53a37,37,0,0,1,4.8-.59c3.87-.09,7.75-.06,11.63,0,2.82,0,5.63.17,8.45.21,2.6,0,5.2,0,7.8,0,4.78.12,9.63-.17,14.3.6,5.5.89,11.12.38,16.54,1.94,1.42.41,3.06.08,4.6.09,2.5,0,5,0,7.5,0,4.34-.06,8.68-.16,13-.23,1.89,0,3.79,0,5.44,0l1.74-6.92a13.63,13.63,0,0,0,.33-1.37c.54-3.36,3-5,5.75-6.32a35,35,0,0,1,6-2.21,7.63,7.63,0,0,1,4.64.2c1.35.46,2.91.3,4.35.57,2.89.54,4.78-1,6.55-2.92,1.62-1.7,3.13-3.52,4.84-5.12a4.44,4.44,0,0,1,2.5-.82c1.46-.13,2.95,0,4.43,0a1.2,1.2,0,0,1,1.35,1c.9,3.41,1.91,6.8,2.65,10.24.47,2.19.51,4.46.8,6.69.27,2,.64,4,.93,6.06.25,1.71.45,3.42.67,5.14.28,2.21.58,4.42.81,6.63.2,1.86.27,3.73.47,5.58.35,3.29.77,6.57,1.13,9.85.28,2.5.57,5,.77,7.53.35,4.45.65,8.91,1,13.36.11,1.63.12,3.26.26,4.88.12,1.39.32,2.78.56,4.16.28,1.62.65,3.23,1,4.89l1.14-1.77.36.17a16.24,16.24,0,0,0-.76,2.08,14.8,14.8,0,0,0-.32,2.57,9.87,9.87,0,0,0,.18,1.87c.24,1.67.49,3.34.74,5,.11.73.22,1.47.34,2.32l.74-.51a.42.42,0,0,1,.09.14c.51,3.53.92,7.08,1.55,10.59.91,5.09,2,10.15,3,15.24.32,1.74.36,3.53.55,5.29,0,.15.19.28.29.42Z"/><path class="cls-2" d="M348.09,26.15c-.38-.06-.47-.11-.53-.08a33.84,33.84,0,0,1-9.18,2.38c-2.46.38-5.16.53-5.92,3.7,0,.1-.17.17-.24.27-.87,1.34-1.3,3.36.26,4.44a5.41,5.41,0,0,1,1.1,1.09,7.51,7.51,0,0,1,1.79,4.15c.17,2.2-.91,4.06-1.3,6.09s-.61,4.18.59,6.16a53.19,53.19,0,0,1,2.59,4.75,9.45,9.45,0,0,1,.6,6.43c-.74,3.2-.77,6.39,1.24,9.4A10.14,10.14,0,0,1,340.7,81a13.66,13.66,0,0,0,.47,5.72c1.06,2.7,2.14,5.39,3.22,8.08a17.33,17.33,0,0,0,3.21,5.59c1.19,1.29,2.32,2.62,3.5,3.92a1.79,1.79,0,0,0,.7.43,4.71,4.71,0,0,0,5-1.91c1.12-1.62,1.08-3.46,1.13-5.22.11-4.36-1.26-8.5-2.22-12.7-.64-2.78-1.35-5.54-1.95-8.32s-1.06-5.52-1.69-8.26c-.38-1.67-1.13-3.26-1.4-4.93-.4-2.5-.58-5-.75-7.56-.31-4.5-.48-9-.81-13.51-.25-3.43-.72-6.84-1-10.26C348,30.11,348.09,28.1,348.09,26.15Z"/><path class="cls-3" d="M348.09,26.15c0,2-.12,4,0,6,.24,3.42.71,6.83,1,10.26.33,4.5.5,9,.81,13.51.17,2.52.35,5.06.75,7.56.27,1.67,1,3.26,1.4,4.93.63,2.74,1.09,5.51,1.69,8.26s1.31,5.54,1.95,8.32c1,4.2,2.33,8.34,2.22,12.7-.05,1.76,0,3.6-1.13,5.22a4.71,4.71,0,0,1-5,1.91,1.79,1.79,0,0,1-.7-.43c-1.18-1.3-2.31-2.63-3.5-3.92a17.33,17.33,0,0,1-3.21-5.59c-1.08-2.69-2.16-5.38-3.22-8.08A13.66,13.66,0,0,1,340.7,81a10.14,10.14,0,0,0-1.61-6.1c-2-3-2-6.2-1.24-9.4a9.45,9.45,0,0,0-.6-6.43,53.19,53.19,0,0,0-2.59-4.75c-1.2-2-1-4-.59-6.16s1.47-3.89,1.3-6.09A7.51,7.51,0,0,0,333.58,38a5.41,5.41,0,0,0-1.1-1.09c-1.56-1.08-1.13-3.1-.26-4.44.07-.1.21-.17.24-.27.76-3.17,3.46-3.32,5.92-3.7a33.84,33.84,0,0,0,9.18-2.38C347.62,26,347.71,26.09,348.09,26.15Z"/>
</g>
</svg>
